<svg xmlns="http://www.w3.org/2000/svg" viewBox="0 0 1600 1000" role="img" aria-label="Illustration of an electric meter on the outside wall of a house"><defs><linearGradient id="w" x1="0" y1="0" x2="1" y2="1"><stop offset="0" stop-color="#d9cbb5"/><stop offset="1" stop-color="#c2b29a"/></linearGradient><radialGradient id="gl" cx=".35" cy=".3"><stop offset="0" stop-color="#ffffff" stop-opacity=".7"/><stop offset="1" stop-color="#cfe7ef" stop-opacity=".15"/></radialGradient></defs><rect width="1600" height="1000" fill="url(#w)"/><rect x="-120" y="0" width="116" height="62" rx="3" fill="#b9a68b" opacity=".35"/><rect x="0" y="0" width="116" height="62" rx="3" fill="#b9a68b" opacity=".35"/><rect x="120" y="0" width="116" height="62" rx="3" fill="#b9a68b" opacity=".35"/><rect x="240" y="0" width="116" height="62" rx="3" fill="#b9a68b" opacity=".35"/><rect x="360" y="0" width="116" height="62" rx="3" fill="#b9a68b" opacity=".35"/><rect x="480" y="0" width="116" height="62" rx="3" fill="#b9a68b" opacity=".35"/><rect x="600" y="0" width="116" height="62" rx="3" fill="#b9a68b" opacity=".35"/><rect x="720" y="0" width="116" height="62" rx="3" fill="#b9a68b" opacity=".35"/><rect x="840" y="0" width="116" height="62" rx="3" fill="#b9a68b" opacity=".35"/><rect x="960" y="0" width="116" height="62" rx="3" fill="#b9a68b" opacity=".35"/><rect x="1080" y="0" width="116" height="62" rx="3" fill="#b9a68b" opacity=".35"/><rect x="1200" y="0" width="116" height="62" rx="3" fill="#b9a68b" opacity=".35"/><rect x="1320" y="0" width="116" height="62" rx="3" fill="#b9a68b" opacity=".35"/><rect x="1440" y="0" width="116" height="62" rx="3" fill="#b9a68b" opacity=".35"/><rect x="1560" y="0" width="116" height="62" rx="3" fill="#b9a68b" opacity=".35"/><rect x="-60" y="70" width="116" height="62" rx="3" fill="#b9a68b" opacity=".35"/><rect x="60" y="70" width="116" height="62" rx="3" fill="#b9a68b" opacity=".35"/><rect x="180" y="70" width="116" height="62" rx="3" fill="#b9a68b" opacity=".35"/><rect x="300" y="70" width="116" height="62" rx="3" fill="#b9a68b" opacity=".35"/><rect x="420" y="70" width="116" height="62" rx="3" fill="#b9a68b" opacity=".35"/><rect x="540" y="70" width="116" height="62" rx="3" fill="#b9a68b" opacity=".35"/><rect x="660" y="70" width="116" height="62" rx="3" fill="#b9a68b" opacity=".35"/><rect x="780" y="70" width="116" height="62" rx="3" fill="#b9a68b" opacity=".35"/><rect x="900" y="70" width="116" height="62" rx="3" fill="#b9a68b" opacity=".35"/><rect x="1020" y="70" width="116" height="62" rx="3" fill="#b9a68b" opacity=".35"/><rect x="1140" y="70" width="116" height="62" rx="3" fill="#b9a68b" opacity=".35"/><rect x="1260" y="70" width="116" height="62" rx="3" fill="#b9a68b" opacity=".35"/><rect x="1380" y="70" width="116" height="62" rx="3" fill="#b9a68b" opacity=".35"/><rect x="1500" y="70" width="116" height="62" rx="3" fill="#b9a68b" opacity=".35"/><rect x="1620" y="70" width="116" height="62" rx="3" fill="#b9a68b" opacity=".35"/><rect x="-120" y="140" width="116" height="62" rx="3" fill="#b9a68b" opacity=".35"/><rect x="0" y="140" width="116" height="62" rx="3" fill="#b9a68b" opacity=".35"/><rect x="120" y="140" width="116" height="62" rx="3" fill="#b9a68b" opacity=".35"/><rect x="240" y="140" width="116" height="62" rx="3" fill="#b9a68b" opacity=".35"/><rect x="360" y="140" width="116" height="62" rx="3" fill="#b9a68b" opacity=".35"/><rect x="480" y="140" width="116" height="62" rx="3" fill="#b9a68b" opacity=".35"/><rect x="600" y="140" width="116" height="62" rx="3" fill="#b9a68b" opacity=".35"/><rect x="720" y="140" width="116" height="62" rx="3" fill="#b9a68b" opacity=".35"/><rect x="840" y="140" width="116" height="62" rx="3" fill="#b9a68b" opacity=".35"/><rect x="960" y="140" width="116" height="62" rx="3" fill="#b9a68b" opacity=".35"/><rect x="1080" y="140" width="116" height="62" rx="3" fill="#b9a68b" opacity=".35"/><rect x="1200" y="140" width="116" height="62" rx="3" fill="#b9a68b" opacity=".35"/><rect x="1320" y="140" width="116" height="62" rx="3" fill="#b9a68b" opacity=".35"/><rect x="1440" y="140" width="116" height="62" rx="3" fill="#b9a68b" opacity=".35"/><rect x="1560" y="140" width="116" height="62" rx="3" fill="#b9a68b" opacity=".35"/><rect x="-60" y="210" width="116" height="62" rx="3" fill="#b9a68b" opacity=".35"/><rect x="60" y="210" width="116" height="62" rx="3" fill="#b9a68b" opacity=".35"/><rect x="180" y="210" width="116" height="62" rx="3" fill="#b9a68b" opacity=".35"/><rect x="300" y="210" width="116" height="62" rx="3" fill="#b9a68b" opacity=".35"/><rect x="420" y="210" width="116" height="62" rx="3" fill="#b9a68b" opacity=".35"/><rect x="540" y="210" width="116" height="62" rx="3" fill="#b9a68b" opacity=".35"/><rect x="660" y="210" width="116" height="62" rx="3" fill="#b9a68b" opacity=".35"/><rect x="780" y="210" width="116" height="62" rx="3" fill="#b9a68b" opacity=".35"/><rect x="900" y="210" width="116" height="62" rx="3" fill="#b9a68b" opacity=".35"/><rect x="1020" y="210" width="116" height="62" rx="3" fill="#b9a68b" opacity=".35"/><rect x="1140" y="210" width="116" height="62" rx="3" fill="#b9a68b" opacity=".35"/><rect x="1260" y="210" width="116" height="62" rx="3" fill="#b9a68b" opacity=".35"/><rect x="1380" y="210" width="116" height="62" rx="3" fill="#b9a68b" opacity=".35"/><rect x="1500" y="210" width="116" height="62" rx="3" fill="#b9a68b" opacity=".35"/><rect x="1620" y="210" width="116" height="62" rx="3" fill="#b9a68b" opacity=".35"/><rect x="-120" y="280" width="116" height="62" rx="3" fill="#b9a68b" opacity=".35"/><rect x="0" y="280" width="116" height="62" rx="3" fill="#b9a68b" opacity=".35"/><rect x="120" y="280" width="116" height="62" rx="3" fill="#b9a68b" opacity=".35"/><rect x="240" y="280" width="116" height="62" rx="3" fill="#b9a68b" opacity=".35"/><rect x="360" y="280" width="116" height="62" rx="3" fill="#b9a68b" opacity=".35"/><rect x="480" y="280" width="116" height="62" rx="3" fill="#b9a68b" opacity=".35"/><rect x="600" y="280" width="116" height="62" rx="3" fill="#b9a68b" opacity=".35"/><rect x="720" y="280" width="116" height="62" rx="3" fill="#b9a68b" opacity=".35"/><rect x="840" y="280" width="116" height="62" rx="3" fill="#b9a68b" opacity=".35"/><rect x="960" y="280" width="116" height="62" rx="3" fill="#b9a68b" opacity=".35"/><rect x="1080" y="280" width="116" height="62" rx="3" fill="#b9a68b" opacity=".35"/><rect x="1200" y="280" width="116" height="62" rx="3" fill="#b9a68b" opacity=".35"/><rect x="1320" y="280" width="116" height="62" rx="3" fill="#b9a68b" opacity=".35"/><rect x="1440" y="280" width="116" height="62" rx="3" fill="#b9a68b" opacity=".35"/><rect x="1560" y="280" width="116" height="62" rx="3" fill="#b9a68b" opacity=".35"/><rect x="-60" y="350" width="116" height="62" rx="3" fill="#b9a68b" opacity=".35"/><rect x="60" y="350" width="116" height="62" rx="3" fill="#b9a68b" opacity=".35"/><rect x="180" y="350" width="116" height="62" rx="3" fill="#b9a68b" opacity=".35"/><rect x="300" y="350" width="116" height="62" rx="3" fill="#b9a68b" opacity=".35"/><rect x="420" y="350" width="116" height="62" rx="3" fill="#b9a68b" opacity=".35"/><rect x="540" y="350" width="116" height="62" rx="3" fill="#b9a68b" opacity=".35"/><rect x="660" y="350" width="116" height="62" rx="3" fill="#b9a68b" opacity=".35"/><rect x="780" y="350" width="116" height="62" rx="3" fill="#b9a68b" opacity=".35"/><rect x="900" y="350" width="116" height="62" rx="3" fill="#b9a68b" opacity=".35"/><rect x="1020" y="350" width="116" height="62" rx="3" fill="#b9a68b" opacity=".35"/><rect x="1140" y="350" width="116" height="62" rx="3" fill="#b9a68b" opacity=".35"/><rect x="1260" y="350" width="116" height="62" rx="3" fill="#b9a68b" opacity=".35"/><rect x="1380" y="350" width="116" height="62" rx="3" fill="#b9a68b" opacity=".35"/><rect x="1500" y="350" width="116" height="62" rx="3" fill="#b9a68b" opacity=".35"/><rect x="1620" y="350" width="116" height="62" rx="3" fill="#b9a68b" opacity=".35"/><rect x="-120" y="420" width="116" height="62" rx="3" fill="#b9a68b" opacity=".35"/><rect x="0" y="420" width="116" height="62" rx="3" fill="#b9a68b" opacity=".35"/><rect x="120" y="420" width="116" height="62" rx="3" fill="#b9a68b" opacity=".35"/><rect x="240" y="420" width="116" height="62" rx="3" fill="#b9a68b" opacity=".35"/><rect x="360" y="420" width="116" height="62" rx="3" fill="#b9a68b" opacity=".35"/><rect x="480" y="420" width="116" height="62" rx="3" fill="#b9a68b" opacity=".35"/><rect x="600" y="420" width="116" height="62" rx="3" fill="#b9a68b" opacity=".35"/><rect x="720" y="420" width="116" height="62" rx="3" fill="#b9a68b" opacity=".35"/><rect x="840" y="420" width="116" height="62" rx="3" fill="#b9a68b" opacity=".35"/><rect x="960" y="420" width="116" height="62" rx="3" fill="#b9a68b" opacity=".35"/><rect x="1080" y="420" width="116" height="62" rx="3" fill="#b9a68b" opacity=".35"/><rect x="1200" y="420" width="116" height="62" rx="3" fill="#b9a68b" opacity=".35"/><rect x="1320" y="420" width="116" height="62" rx="3" fill="#b9a68b" opacity=".35"/><rect x="1440" y="420" width="116" height="62" rx="3" fill="#b9a68b" opacity=".35"/><rect x="1560" y="420" width="116" height="62" rx="3" fill="#b9a68b" opacity=".35"/><rect x="-60" y="490" width="116" height="62" rx="3" fill="#b9a68b" opacity=".35"/><rect x="60" y="490" width="116" height="62" rx="3" fill="#b9a68b" opacity=".35"/><rect x="180" y="490" width="116" height="62" rx="3" fill="#b9a68b" opacity=".35"/><rect x="300" y="490" width="116" height="62" rx="3" fill="#b9a68b" opacity=".35"/><rect x="420" y="490" width="116" height="62" rx="3" fill="#b9a68b" opacity=".35"/><rect x="540" y="490" width="116" height="62" rx="3" fill="#b9a68b" opacity=".35"/><rect x="660" y="490" width="116" height="62" rx="3" fill="#b9a68b" opacity=".35"/><rect x="780" y="490" width="116" height="62" rx="3" fill="#b9a68b" opacity=".35"/><rect x="900" y="490" width="116" height="62" rx="3" fill="#b9a68b" opacity=".35"/><rect x="1020" y="490" width="116" height="62" rx="3" fill="#b9a68b" opacity=".35"/><rect x="1140" y="490" width="116" height="62" rx="3" fill="#b9a68b" opacity=".35"/><rect x="1260" y="490" width="116" height="62" rx="3" fill="#b9a68b" opacity=".35"/><rect x="1380" y="490" width="116" height="62" rx="3" fill="#b9a68b" opacity=".35"/><rect x="1500" y="490" width="116" height="62" rx="3" fill="#b9a68b" opacity=".35"/><rect x="1620" y="490" width="116" height="62" rx="3" fill="#b9a68b" opacity=".35"/><rect x="-120" y="560" width="116" height="62" rx="3" fill="#b9a68b" opacity=".35"/><rect x="0" y="560" width="116" height="62" rx="3" fill="#b9a68b" opacity=".35"/><rect x="120" y="560" width="116" height="62" rx="3" fill="#b9a68b" opacity=".35"/><rect x="240" y="560" width="116" height="62" rx="3" fill="#b9a68b" opacity=".35"/><rect x="360" y="560" width="116" height="62" rx="3" fill="#b9a68b" opacity=".35"/><rect x="480" y="560" width="116" height="62" rx="3" fill="#b9a68b" opacity=".35"/><rect x="600" y="560" width="116" height="62" rx="3" fill="#b9a68b" opacity=".35"/><rect x="720" y="560" width="116" height="62" rx="3" fill="#b9a68b" opacity=".35"/><rect x="840" y="560" width="116" height="62" rx="3" fill="#b9a68b" opacity=".35"/><rect x="960" y="560" width="116" height="62" rx="3" fill="#b9a68b" opacity=".35"/><rect x="1080" y="560" width="116" height="62" rx="3" fill="#b9a68b" opacity=".35"/><rect x="1200" y="560" width="116" height="62" rx="3" fill="#b9a68b" opacity=".35"/><rect x="1320" y="560" width="116" height="62" rx="3" fill="#b9a68b" opacity=".35"/><rect x="1440" y="560" width="116" height="62" rx="3" fill="#b9a68b" opacity=".35"/><rect x="1560" y="560" width="116" height="62" rx="3" fill="#b9a68b" opacity=".35"/><rect x="-60" y="630" width="116" height="62" rx="3" fill="#b9a68b" opacity=".35"/><rect x="60" y="630" width="116" height="62" rx="3" fill="#b9a68b" opacity=".35"/><rect x="180" y="630" width="116" height="62" rx="3" fill="#b9a68b" opacity=".35"/><rect x="300" y="630" width="116" height="62" rx="3" fill="#b9a68b" opacity=".35"/><rect x="420" y="630" width="116" height="62" rx="3" fill="#b9a68b" opacity=".35"/><rect x="540" y="630" width="116" height="62" rx="3" fill="#b9a68b" opacity=".35"/><rect x="660" y="630" width="116" height="62" rx="3" fill="#b9a68b" opacity=".35"/><rect x="780" y="630" width="116" height="62" rx="3" fill="#b9a68b" opacity=".35"/><rect x="900" y="630" width="116" height="62" rx="3" fill="#b9a68b" opacity=".35"/><rect x="1020" y="630" width="116" height="62" rx="3" fill="#b9a68b" opacity=".35"/><rect x="1140" y="630" width="116" height="62" rx="3" fill="#b9a68b" opacity=".35"/><rect x="1260" y="630" width="116" height="62" rx="3" fill="#b9a68b" opacity=".35"/><rect x="1380" y="630" width="116" height="62" rx="3" fill="#b9a68b" opacity=".35"/><rect x="1500" y="630" width="116" height="62" rx="3" fill="#b9a68b" opacity=".35"/><rect x="1620" y="630" width="116" height="62" rx="3" fill="#b9a68b" opacity=".35"/><rect x="-120" y="700" width="116" height="62" rx="3" fill="#b9a68b" opacity=".35"/><rect x="0" y="700" width="116" height="62" rx="3" fill="#b9a68b" opacity=".35"/><rect x="120" y="700" width="116" height="62" rx="3" fill="#b9a68b" opacity=".35"/><rect x="240" y="700" width="116" height="62" rx="3" fill="#b9a68b" opacity=".35"/><rect x="360" y="700" width="116" height="62" rx="3" fill="#b9a68b" opacity=".35"/><rect x="480" y="700" width="116" height="62" rx="3" fill="#b9a68b" opacity=".35"/><rect x="600" y="700" width="116" height="62" rx="3" fill="#b9a68b" opacity=".35"/><rect x="720" y="700" width="116" height="62" rx="3" fill="#b9a68b" opacity=".35"/><rect x="840" y="700" width="116" height="62" rx="3" fill="#b9a68b" opacity=".35"/><rect x="960" y="700" width="116" height="62" rx="3" fill="#b9a68b" opacity=".35"/><rect x="1080" y="700" width="116" height="62" rx="3" fill="#b9a68b" opacity=".35"/><rect x="1200" y="700" width="116" height="62" rx="3" fill="#b9a68b" opacity=".35"/><rect x="1320" y="700" width="116" height="62" rx="3" fill="#b9a68b" opacity=".35"/><rect x="1440" y="700" width="116" height="62" rx="3" fill="#b9a68b" opacity=".35"/><rect x="1560" y="700" width="116" height="62" rx="3" fill="#b9a68b" opacity=".35"/><rect x="-60" y="770" width="116" height="62" rx="3" fill="#b9a68b" opacity=".35"/><rect x="60" y="770" width="116" height="62" rx="3" fill="#b9a68b" opacity=".35"/><rect x="180" y="770" width="116" height="62" rx="3" fill="#b9a68b" opacity=".35"/><rect x="300" y="770" width="116" height="62" rx="3" fill="#b9a68b" opacity=".35"/><rect x="420" y="770" width="116" height="62" rx="3" fill="#b9a68b" opacity=".35"/><rect x="540" y="770" width="116" height="62" rx="3" fill="#b9a68b" opacity=".35"/><rect x="660" y="770" width="116" height="62" rx="3" fill="#b9a68b" opacity=".35"/><rect x="780" y="770" width="116" height="62" rx="3" fill="#b9a68b" opacity=".35"/><rect x="900" y="770" width="116" height="62" rx="3" fill="#b9a68b" opacity=".35"/><rect x="1020" y="770" width="116" height="62" rx="3" fill="#b9a68b" opacity=".35"/><rect x="1140" y="770" width="116" height="62" rx="3" fill="#b9a68b" opacity=".35"/><rect x="1260" y="770" width="116" height="62" rx="3" fill="#b9a68b" opacity=".35"/><rect x="1380" y="770" width="116" height="62" rx="3" fill="#b9a68b" opacity=".35"/><rect x="1500" y="770" width="116" height="62" rx="3" fill="#b9a68b" opacity=".35"/><rect x="1620" y="770" width="116" height="62" rx="3" fill="#b9a68b" opacity=".35"/><rect x="-120" y="840" width="116" height="62" rx="3" fill="#b9a68b" opacity=".35"/><rect x="0" y="840" width="116" height="62" rx="3" fill="#b9a68b" opacity=".35"/><rect x="120" y="840" width="116" height="62" rx="3" fill="#b9a68b" opacity=".35"/><rect x="240" y="840" width="116" height="62" rx="3" fill="#b9a68b" opacity=".35"/><rect x="360" y="840" width="116" height="62" rx="3" fill="#b9a68b" opacity=".35"/><rect x="480" y="840" width="116" height="62" rx="3" fill="#b9a68b" opacity=".35"/><rect x="600" y="840" width="116" height="62" rx="3" fill="#b9a68b" opacity=".35"/><rect x="720" y="840" width="116" height="62" rx="3" fill="#b9a68b" opacity=".35"/><rect x="840" y="840" width="116" height="62" rx="3" fill="#b9a68b" opacity=".35"/><rect x="960" y="840" width="116" height="62" rx="3" fill="#b9a68b" opacity=".35"/><rect x="1080" y="840" width="116" height="62" rx="3" fill="#b9a68b" opacity=".35"/><rect x="1200" y="840" width="116" height="62" rx="3" fill="#b9a68b" opacity=".35"/><rect x="1320" y="840" width="116" height="62" rx="3" fill="#b9a68b" opacity=".35"/><rect x="1440" y="840" width="116" height="62" rx="3" fill="#b9a68b" opacity=".35"/><rect x="1560" y="840" width="116" height="62" rx="3" fill="#b9a68b" opacity=".35"/><rect x="-60" y="910" width="116" height="62" rx="3" fill="#b9a68b" opacity=".35"/><rect x="60" y="910" width="116" height="62" rx="3" fill="#b9a68b" opacity=".35"/><rect x="180" y="910" width="116" height="62" rx="3" fill="#b9a68b" opacity=".35"/><rect x="300" y="910" width="116" height="62" rx="3" fill="#b9a68b" opacity=".35"/><rect x="420" y="910" width="116" height="62" rx="3" fill="#b9a68b" opacity=".35"/><rect x="540" y="910" width="116" height="62" rx="3" fill="#b9a68b" opacity=".35"/><rect x="660" y="910" width="116" height="62" rx="3" fill="#b9a68b" opacity=".35"/><rect x="780" y="910" width="116" height="62" rx="3" fill="#b9a68b" opacity=".35"/><rect x="900" y="910" width="116" height="62" rx="3" fill="#b9a68b" opacity=".35"/><rect x="1020" y="910" width="116" height="62" rx="3" fill="#b9a68b" opacity=".35"/><rect x="1140" y="910" width="116" height="62" rx="3" fill="#b9a68b" opacity=".35"/><rect x="1260" y="910" width="116" height="62" rx="3" fill="#b9a68b" opacity=".35"/><rect x="1380" y="910" width="116" height="62" rx="3" fill="#b9a68b" opacity=".35"/><rect x="1500" y="910" width="116" height="62" rx="3" fill="#b9a68b" opacity=".35"/><rect x="1620" y="910" width="116" height="62" rx="3" fill="#b9a68b" opacity=".35"/><rect x="-120" y="980" width="116" height="62" rx="3" fill="#b9a68b" opacity=".35"/><rect x="0" y="980" width="116" height="62" rx="3" fill="#b9a68b" opacity=".35"/><rect x="120" y="980" width="116" height="62" rx="3" fill="#b9a68b" opacity=".35"/><rect x="240" y="980" width="116" height="62" rx="3" fill="#b9a68b" opacity=".35"/><rect x="360" y="980" width="116" height="62" rx="3" fill="#b9a68b" opacity=".35"/><rect x="480" y="980" width="116" height="62" rx="3" fill="#b9a68b" opacity=".35"/><rect x="600" y="980" width="116" height="62" rx="3" fill="#b9a68b" opacity=".35"/><rect x="720" y="980" width="116" height="62" rx="3" fill="#b9a68b" opacity=".35"/><rect x="840" y="980" width="116" height="62" rx="3" fill="#b9a68b" opacity=".35"/><rect x="960" y="980" width="116" height="62" rx="3" fill="#b9a68b" opacity=".35"/><rect x="1080" y="980" width="116" height="62" rx="3" fill="#b9a68b" opacity=".35"/><rect x="1200" y="980" width="116" height="62" rx="3" fill="#b9a68b" opacity=".35"/><rect x="1320" y="980" width="116" height="62" rx="3" fill="#b9a68b" opacity=".35"/><rect x="1440" y="980" width="116" height="62" rx="3" fill="#b9a68b" opacity=".35"/><rect x="1560" y="980" width="116" height="62" rx="3" fill="#b9a68b" opacity=".35"/>
<rect x="775" y="0" width="50" height="330" fill="#7d8a8c"/><rect x="760" y="300" width="80" height="40" rx="6" fill="#6b7779"/>
<rect x="590" y="330" width="420" height="560" rx="40" fill="#8c999b"/><rect x="610" y="350" width="380" height="520" rx="30" fill="#a7b3b4"/>
<circle cx="800" cy="580" r="190" fill="#3c4a4d"/><circle cx="800" cy="580" r="172" fill="#eef3f2"/>
<rect x="690" y="470" width="220" height="64" rx="8" fill="#14302b"/><text x="800" y="516" font-family="monospace" font-size="44" font-weight="700" fill="#f2c230" text-anchor="middle">04 718</text>
<text x="800" y="580" font-family="Arial,sans-serif" font-size="30" fill="#4a5f5a" text-anchor="middle">kWh</text>
<rect x="720" y="610" width="160" height="12" rx="6" fill="#c9d3d1"/><rect x="720" y="610" width="96" height="12" rx="6" fill="#2e9a63"/>
<circle cx="800" cy="680" r="18" fill="#f2c230"/>
<circle cx="800" cy="580" r="172" fill="url(#gl)"/>
<rect x="760" y="890" width="80" height="110" fill="#7d8a8c"/></svg>