<svg xmlns="http://www.w3.org/2000/svg" viewBox="0 0 1600 1000" role="img" aria-label="Illustration of solar panels on a residential roof under a blue sky"><defs><linearGradient id="s" x1="0" y1="0" x2="0" y2="1"><stop offset="0" stop-color="#5fb3d6"/><stop offset="1" stop-color="#cdeaf3"/></linearGradient><radialGradient id="glow"><stop offset="0" stop-color="#ffe9a8"/><stop offset=".4" stop-color="#f2c230" stop-opacity=".55"/><stop offset="1" stop-color="#f2c230" stop-opacity="0"/></radialGradient><linearGradient id="p" x1="0" y1="0" x2="1" y2="1"><stop offset="0" stop-color="#2a4f86"/><stop offset="1" stop-color="#16345e"/></linearGradient></defs><rect width="1600" height="1000" fill="url(#s)"/>
<circle cx="1360" cy="190" r="220" fill="url(#glow)"/><circle cx="1360" cy="190" r="80" fill="#ffd36e"/>
<g fill="#fff" opacity=".9"><ellipse cx="380" cy="160" rx="120" ry="40"/><ellipse cx="460" cy="140" rx="90" ry="45"/><ellipse cx="1000" cy="240" rx="100" ry="32"/></g>
<path d="M0 1000 L0 760 L560 140 L1600 140 L1600 1000Z" fill="#7d4e3a"/>
<path d="M60 760 L590 180 L1600 180 L1600 760Z" fill="#9b5f45"/>
<path d="M60 760 L1600 760" stroke="#86503a" stroke-width="4"/><path d="M68 702 L1600 702" stroke="#86503a" stroke-width="4"/><path d="M76 644 L1600 644" stroke="#86503a" stroke-width="4"/><path d="M84 586 L1600 586" stroke="#86503a" stroke-width="4"/><path d="M92 528 L1600 528" stroke="#86503a" stroke-width="4"/><path d="M100 470 L1600 470" stroke="#86503a" stroke-width="4"/><path d="M108 412 L1600 412" stroke="#86503a" stroke-width="4"/><path d="M116 354 L1600 354" stroke="#86503a" stroke-width="4"/><path d="M124 296 L1600 296" stroke="#86503a" stroke-width="4"/><path d="M132 238 L1600 238" stroke="#86503a" stroke-width="4"/>
<g transform="translate(200 520) skewX(-25)"><rect width="200" height="115" fill="url(#p)" stroke="#d7e3ea" stroke-width="5"/><path d="M50 0v115M100 0v115M150 0v115M0 57h200" stroke="#5c7fb5" stroke-width="2"/></g><g transform="translate(420 520) skewX(-25)"><rect width="200" height="115" fill="url(#p)" stroke="#d7e3ea" stroke-width="5"/><path d="M50 0v115M100 0v115M150 0v115M0 57h200" stroke="#5c7fb5" stroke-width="2"/></g><g transform="translate(640 520) skewX(-25)"><rect width="200" height="115" fill="url(#p)" stroke="#d7e3ea" stroke-width="5"/><path d="M50 0v115M100 0v115M150 0v115M0 57h200" stroke="#5c7fb5" stroke-width="2"/></g><g transform="translate(860 520) skewX(-25)"><rect width="200" height="115" fill="url(#p)" stroke="#d7e3ea" stroke-width="5"/><path d="M50 0v115M100 0v115M150 0v115M0 57h200" stroke="#5c7fb5" stroke-width="2"/></g><g transform="translate(1080 520) skewX(-25)"><rect width="200" height="115" fill="url(#p)" stroke="#d7e3ea" stroke-width="5"/><path d="M50 0v115M100 0v115M150 0v115M0 57h200" stroke="#5c7fb5" stroke-width="2"/></g><g transform="translate(260 390) skewX(-25)"><rect width="200" height="115" fill="url(#p)" stroke="#d7e3ea" stroke-width="5"/><path d="M50 0v115M100 0v115M150 0v115M0 57h200" stroke="#5c7fb5" stroke-width="2"/></g><g transform="translate(480 390) skewX(-25)"><rect width="200" height="115" fill="url(#p)" stroke="#d7e3ea" stroke-width="5"/><path d="M50 0v115M100 0v115M150 0v115M0 57h200" stroke="#5c7fb5" stroke-width="2"/></g><g transform="translate(700 390) skewX(-25)"><rect width="200" height="115" fill="url(#p)" stroke="#d7e3ea" stroke-width="5"/><path d="M50 0v115M100 0v115M150 0v115M0 57h200" stroke="#5c7fb5" stroke-width="2"/></g><g transform="translate(920 390) skewX(-25)"><rect width="200" height="115" fill="url(#p)" stroke="#d7e3ea" stroke-width="5"/><path d="M50 0v115M100 0v115M150 0v115M0 57h200" stroke="#5c7fb5" stroke-width="2"/></g><g transform="translate(1140 390) skewX(-25)"><rect width="200" height="115" fill="url(#p)" stroke="#d7e3ea" stroke-width="5"/><path d="M50 0v115M100 0v115M150 0v115M0 57h200" stroke="#5c7fb5" stroke-width="2"/></g><g transform="translate(320 260) skewX(-25)"><rect width="200" height="115" fill="url(#p)" stroke="#d7e3ea" stroke-width="5"/><path d="M50 0v115M100 0v115M150 0v115M0 57h200" stroke="#5c7fb5" stroke-width="2"/></g><g transform="translate(540 260) skewX(-25)"><rect width="200" height="115" fill="url(#p)" stroke="#d7e3ea" stroke-width="5"/><path d="M50 0v115M100 0v115M150 0v115M0 57h200" stroke="#5c7fb5" stroke-width="2"/></g><g transform="translate(760 260) skewX(-25)"><rect width="200" height="115" fill="url(#p)" stroke="#d7e3ea" stroke-width="5"/><path d="M50 0v115M100 0v115M150 0v115M0 57h200" stroke="#5c7fb5" stroke-width="2"/></g><g transform="translate(980 260) skewX(-25)"><rect width="200" height="115" fill="url(#p)" stroke="#d7e3ea" stroke-width="5"/><path d="M50 0v115M100 0v115M150 0v115M0 57h200" stroke="#5c7fb5" stroke-width="2"/></g><g transform="translate(1200 260) skewX(-25)"><rect width="200" height="115" fill="url(#p)" stroke="#d7e3ea" stroke-width="5"/><path d="M50 0v115M100 0v115M150 0v115M0 57h200" stroke="#5c7fb5" stroke-width="2"/></g>
<rect x="0" y="760" width="1600" height="240" fill="#e9e2d6"/><rect x="0" y="760" width="1600" height="18" fill="#cfc4b2"/></svg>